<svg width="20" height="20" viewBox="0 0 20 20" fill="none" xmlns="http://www.w3.org/2000/svg">
<path d="M9.96259 5.10184C7.3118 5.10184 5.17248 7.33745 5.17248 10.1075C5.17248 12.8776 7.3118 15.1132 9.96259 15.1132C12.6134 15.1132 14.7527 12.8776 14.7527 10.1075C14.7527 7.33745 12.6134 5.10184 9.96259 5.10184ZM9.96259 13.3609C8.24833 13.3609 6.84937 11.899 6.84937 10.1075C6.84937 8.31613 8.24833 6.85421 9.96259 6.85421C11.6768 6.85421 13.0758 8.31613 13.0758 10.1075C13.0758 11.899 11.6768 13.3609 9.96259 13.3609ZM14.9489 3.73022C14.33 3.73022 13.8302 4.25251 13.8302 4.89927C13.8302 5.54604 14.33 6.06833 14.9489 6.06833C15.5678 6.06833 16.0676 5.54848 16.0676 4.89927C16.0678 4.7457 16.039 4.59359 15.9828 4.45167C15.9266 4.30975 15.8442 4.18079 15.7403 4.0722C15.6364 3.9636 15.513 3.8775 15.3772 3.81882C15.2414 3.76013 15.0958 3.73003 14.9489 3.73022ZM19.2999 10.1075C19.2999 8.76033 19.3116 7.42531 19.2392 6.08053C19.1668 4.51854 18.8258 3.13227 17.7328 1.99006C16.6374 0.845414 15.3132 0.491525 13.8185 0.415866C12.5293 0.340207 11.2518 0.352411 9.96492 0.352411C8.67572 0.352411 7.39821 0.340207 6.11135 0.415866C4.61663 0.491525 3.29007 0.847855 2.19706 1.99006C1.10171 3.13471 0.76306 4.51854 0.69066 6.08053C0.618259 7.42775 0.629937 8.76277 0.629937 10.1075C0.629937 11.4523 0.618259 12.7898 0.69066 14.1346C0.76306 15.6965 1.10404 17.0828 2.19706 18.225C3.2924 19.3697 4.61663 19.7236 6.11135 19.7992C7.40054 19.8749 8.67806 19.8627 9.96492 19.8627C11.2541 19.8627 12.5316 19.8749 13.8185 19.7992C15.3132 19.7236 16.6398 19.3672 17.7328 18.225C18.8281 17.0804 19.1668 15.6965 19.2392 14.1346C19.3139 12.7898 19.2999 11.4548 19.2999 10.1075ZM17.2447 15.8625C17.0742 16.3067 16.8687 16.6386 16.5393 16.9803C16.21 17.3244 15.8947 17.5392 15.4697 17.7174C14.2412 18.2275 11.3242 18.1128 9.96259 18.1128C8.60099 18.1128 5.68162 18.2275 4.45315 17.7198C4.02809 17.5417 3.71046 17.3269 3.38349 16.9828C3.05418 16.6386 2.84866 16.3091 2.67817 15.865C2.19238 14.5787 2.30215 11.5304 2.30215 10.1075C2.30215 8.68467 2.19238 5.6339 2.67817 4.35014C2.84866 3.90594 3.05418 3.57402 3.38349 3.23233C3.71279 2.89065 4.02809 2.67343 4.45315 2.49527C5.68162 1.98762 8.60099 2.10233 9.96259 2.10233C11.3242 2.10233 14.2436 1.98762 15.472 2.49527C15.8971 2.67343 16.2147 2.88821 16.5417 3.23233C16.871 3.57646 17.0765 3.90594 17.247 4.35014C17.7328 5.6339 17.623 8.68467 17.623 10.1075C17.623 11.5304 17.7328 14.5787 17.2447 15.8625Z" fill="currentColor"/>
</svg>
