<svg width="18" height="22" viewBox="0 0 18 22" fill="none" xmlns="http://www.w3.org/2000/svg">
<path d="M0.980299 7.84209C0.980299 6.89691 1.13841 6.00397 1.44997 5.17056C1.74765 4.36108 2.18992 3.61814 2.7532 2.98133C3.31534 2.35289 3.95863 1.80946 4.66445 1.36675C5.38863 0.908924 6.17264 0.563526 6.9919 0.341388C7.82105 0.113866 8.67484 -0.000876391 9.53209 5.03971e-06C10.8563 5.03971e-06 12.0886 0.292793 13.2314 0.875938C14.3592 1.44845 15.3193 2.32705 16.011 3.41991C16.7249 4.53153 17.0794 5.78894 17.0794 7.19091C17.0794 8.03162 17.0004 8.85409 16.8388 9.65835C16.6801 10.4622 16.4279 11.2427 16.0878 11.9824C15.7636 12.6985 15.3397 13.3606 14.8299 13.9469C14.3175 14.5239 13.697 14.9846 13.007 15.3003C12.2578 15.6434 11.4474 15.8161 10.6296 15.8069C10.0611 15.8069 9.49373 15.6672 8.93338 15.3865C8.37302 15.1071 7.97078 14.7232 7.72896 14.2312C7.6441 14.5726 7.52784 15.0658 7.37322 15.7109C7.22441 16.3548 7.12443 16.7703 7.08026 16.9586C7.03375 17.1457 6.94772 17.4579 6.82217 17.8904C6.73702 18.2103 6.62778 18.5227 6.49549 18.8247L6.09557 19.6435C5.92261 19.9949 5.72927 20.3349 5.51661 20.6616C5.30619 20.9799 5.04577 21.3601 4.73537 21.7975L4.56215 21.8619L4.44705 21.7307C4.32266 20.3542 4.25872 19.5305 4.25872 19.2584C4.25872 18.4529 4.35056 17.549 4.53192 16.5455C4.70979 15.5433 4.99113 14.2834 5.36897 12.7685C5.7468 11.2547 5.96303 10.3642 6.02116 10.1006C5.75494 9.53321 5.62008 8.79214 5.62008 7.88097C5.62008 7.15325 5.83748 6.4717 6.27344 5.83024C6.71056 5.19121 7.26278 4.8717 7.93241 4.8717C8.4451 4.8717 8.8427 5.04907 9.12752 5.40503C9.41351 5.75978 9.55302 6.20686 9.55302 6.75234C9.55302 7.33063 9.36934 8.16768 8.99964 9.2623C8.62995 10.3581 8.44626 11.1757 8.44626 11.7188C8.44626 12.2691 8.6346 12.7296 9.01127 13.0904C9.38299 13.4514 9.87458 13.647 10.3819 13.6359C10.8423 13.6359 11.269 13.5265 11.6654 13.3067C12.0556 13.0932 12.3934 12.7884 12.6524 12.4161C13.2165 11.6074 13.6186 10.688 13.8347 9.71302C13.9463 9.20034 14.0324 8.71317 14.0858 8.25515C14.1428 7.79471 14.1672 7.35978 14.1672 6.94672C14.1672 5.43176 13.7069 4.25089 12.7919 3.40533C11.8723 2.55977 10.6749 2.13942 9.20193 2.13942C7.52668 2.13942 6.12579 2.70556 5.00392 3.84147C3.88089 4.97375 3.31588 6.41339 3.31588 8.15918C3.31588 8.5443 3.37169 8.91605 3.47748 9.27566C3.58095 9.63405 3.69372 9.91955 3.81578 10.1309C3.93669 10.3387 4.05062 10.5416 4.15409 10.7287C4.25872 10.9158 4.31336 11.0494 4.31336 11.1296C4.31336 11.375 4.25174 11.6945 4.12735 12.0893C3.99831 12.4842 3.84601 12.681 3.66233 12.681C3.64489 12.681 3.57281 12.6676 3.44725 12.6397C3.01241 12.504 2.61971 12.2504 2.30911 11.9047C1.97945 11.5463 1.71929 11.1247 1.54298 10.6631C1.36717 10.203 1.23024 9.72783 1.13376 9.24286C1.02951 8.78397 0.977995 8.31373 0.980299 7.84209Z" fill="currentColor"/>
</svg>
