<svg width="21" height="18" viewBox="0 0 21 18" fill="none" xmlns="http://www.w3.org/2000/svg">
<path d="M20.4222 2.73669C19.7075 3.05885 18.9298 3.29071 18.1287 3.38102C18.9604 2.86467 19.5832 2.04892 19.8803 1.08683C19.0999 1.572 18.2449 1.91221 17.3533 2.09236C16.9806 1.67606 16.53 1.34441 16.0293 1.11808C15.5286 0.891758 14.9887 0.775606 14.4432 0.776866C12.2362 0.776866 10.4612 2.64639 10.4612 4.94058C10.4612 5.26274 10.4986 5.5849 10.5593 5.89486C7.25455 5.71426 4.30713 4.06439 2.34764 1.53834C1.9906 2.17563 1.8035 2.90125 1.8058 3.63972C1.8058 5.08457 2.50879 6.35858 3.58079 7.10786C2.94904 7.08186 2.33209 6.9004 1.78011 6.57824V6.62949C1.78011 8.65277 3.14872 10.3295 4.97275 10.7151C4.63027 10.8081 4.27796 10.8556 3.92411 10.8567C3.66487 10.8567 3.41964 10.8298 3.17207 10.7932C3.67654 12.4431 5.14558 13.6414 6.89488 13.6805C5.52627 14.8007 3.812 15.4597 1.9506 15.4597C1.61663 15.4597 1.30834 15.4475 0.988373 15.4084C2.75402 16.5921 4.84897 17.2755 7.10507 17.2755C14.4292 17.2755 18.437 10.9348 18.437 5.43114C18.437 5.25054 18.437 5.06993 18.4253 4.88932C19.2007 4.29625 19.8803 3.56162 20.4222 2.73669Z" fill="currentColor"/>
</svg>
