<svg width="13" height="15" viewBox="0 0 19 15" fill="none" xmlns="http://www.w3.org/2000/svg">
<path d="M18.5381 2.33418C18.4322 1.91419 18.2246 1.53119 17.9361 1.2235C17.6475 0.915812 17.2881 0.694231 16.8939 0.580933C15.4428 0.165283 9.62581 0.165283 9.62581 0.165283C9.62581 0.165283 3.80883 0.165283 2.3577 0.578722C1.9633 0.691652 1.60374 0.91311 1.31514 1.22086C1.02654 1.5286 0.819043 1.9118 0.713501 2.33197C0.325287 3.8796 0.325287 7.10751 0.325287 7.10751C0.325287 7.10751 0.325287 10.3354 0.713501 11.8808C0.92733 12.7343 1.55844 13.4064 2.3577 13.6341C3.80883 14.0497 9.62581 14.0497 9.62581 14.0497C9.62581 14.0497 15.4428 14.0497 16.8939 13.6341C17.6953 13.4064 18.3243 12.7343 18.5381 11.8808C18.9263 10.3354 18.9263 7.10751 18.9263 7.10751C18.9263 7.10751 18.9263 3.8796 18.5381 2.33418ZM7.77816 10.0701V4.14491L12.5945 7.0854L7.77816 10.0701Z" fill="currentColor"/>
</svg>
